<?xml version="1.0" encoding="UTF-8"?>
<!-- Generator: Adobe Illustrator 19.1.0, SVG Export Plug-In . SVG Version: 6.00 Build 0)  -->
<svg xmlns="http://www.w3.org/2000/svg" xmlns:xlink="http://www.w3.org/1999/xlink" xmlns:dc="http://purl.org/dc/elements/1.1/" xmlns:cc="http://creativecommons.org/ns#" xmlns:rdf="http://www.w3.org/1999/02/22-rdf-syntax-ns#" version="1.1" id="DESIGNS" x="0px" y="0px" width="32px" height="32px" viewBox="0 0 32 32" style="enable-background:new 0 0 32 32;" xml:space="preserve">
<title property="dc:title">to chat</title><desc property="dc:description">An icon for "chat" from the Blueprint series on to [icon]. Downloaded from http://www.toicon.com/icons/blueprint_chat by 202.98.41.0 on 2020-06-01. Licensed CC-BY, see http://toicon.com/license/ for details.</desc>
<path class="blueprint_een" d="M31,4h-3V1c0-0.552-0.448-1-1-1H1C0.448,0,0,0.448,0,1v20c0,0.552,0.448,1,1,1h3v5  c0,0.552,0.448,1,1,1h9l3.293,3.293c0.195,0.195,0.451,0.293,0.707,0.293s0.512-0.098,0.707-0.293L22,28h9c0.552,0,1-0.448,1-1V5  C32,4.448,31.552,4,31,4z M30,6v20h-8.828L18,29.172L14.828,26H6V6H30z M2,20V2h24v3H6C5.448,5,5,5.448,5,6v14H2z M10,12h16v1H10V12  z M10,15h16v1H10V15z M10,18h16v1H10V18z" style="fill: red;"/>
<metadata><work rdf:about=""><format>image/svg+xml</format><type rdf:resource="http://purl.org/dc/dcmitype/StillImage"/><license rdf:resource="http://creativecommons.org/licenses/by/4.0/"/><attributionname>Shannon E Thomas</attributionname><attributionurl>http://www.toicon.com/icons/blueprint_chat</attributionurl></work></metadata></svg>
