<?xml version="1.0" encoding="UTF-8"?>
<!-- Generator: Adobe Illustrator 19.2.1, SVG Export Plug-In . SVG Version: 6.00 Build 0)  -->
<svg xmlns="http://www.w3.org/2000/svg" xmlns:xlink="http://www.w3.org/1999/xlink" xmlns:dc="http://purl.org/dc/elements/1.1/" xmlns:cc="http://creativecommons.org/ns#" xmlns:rdf="http://www.w3.org/1999/02/22-rdf-syntax-ns#" version="1.1" id="DESIGNS" x="0px" y="0px" width="32px" height="32px" viewBox="0 0 32 32" style="enable-background:new 0 0 32 32;" xml:space="preserve">
<title property="dc:title">to shop</title><desc property="dc:description">An icon for "shop" from the Stone series on to [icon]. Downloaded from http://www.toicon.com/icons/stone_shop by 202.98.41.0 on 2020-06-01. Licensed CC-BY, see http://toicon.com/license/ for details.</desc>
<path class="stone_een" d="M8,21h6v3H8V21z M19,28h4v-7h-4V28z M28,18v7c0,1.657-1.343,3-3,3h-1v-7c0-0.552-0.448-1-1-1h-4  c-0.552,0-1,0.448-1,1v7H7c-1.657,0-3-1.343-3-3v-7H28z M15,21c0-0.552-0.448-1-1-1H8c-0.552,0-1,0.448-1,1v3c0,0.552,0.448,1,1,1h6  c0.552,0,1-0.448,1-1V21z M2.153,15.008L2.787,6.77C2.907,5.207,4.21,4,5.778,4h20.444c1.568,0,2.871,1.207,2.991,2.77l0.634,8.238  c0.083,1.074-0.766,1.99-1.842,1.992H3.995C2.919,16.999,2.071,16.082,2.153,15.008z M26,15.5c0,0.276,0.224,0.5,0.5,0.5  s0.5-0.224,0.5-0.5v-10C27,5.224,26.776,5,26.5,5S26,5.224,26,5.5V15.5z M23,15.5c0,0.276,0.224,0.5,0.5,0.5s0.5-0.224,0.5-0.5v-10  C24,5.224,23.776,5,23.5,5S23,5.224,23,5.5V15.5z M20,15.5c0,0.276,0.224,0.5,0.5,0.5s0.5-0.224,0.5-0.5v-10  C21,5.224,20.776,5,20.5,5S20,5.224,20,5.5V15.5z M17,15.5c0,0.276,0.224,0.5,0.5,0.5s0.5-0.224,0.5-0.5v-10  C18,5.224,17.776,5,17.5,5S17,5.224,17,5.5V15.5z M14,15.5c0,0.276,0.224,0.5,0.5,0.5s0.5-0.224,0.5-0.5v-10  C15,5.224,14.776,5,14.5,5S14,5.224,14,5.5V15.5z M11,15.5c0,0.276,0.224,0.5,0.5,0.5s0.5-0.224,0.5-0.5v-10  C12,5.224,11.776,5,11.5,5S11,5.224,11,5.5V15.5z M8,15.5C8,15.776,8.224,16,8.5,16S9,15.776,9,15.5v-10C9,5.224,8.776,5,8.5,5  S8,5.224,8,5.5V15.5z M5,15.5C5,15.776,5.224,16,5.5,16S6,15.776,6,15.5v-10C6,5.224,5.776,5,5.5,5S5,5.224,5,5.5V15.5z" style="fill: red;"/>
<metadata><work rdf:about=""><format>image/svg+xml</format><type rdf:resource="http://purl.org/dc/dcmitype/StillImage"/><license rdf:resource="http://creativecommons.org/licenses/by/4.0/"/><attributionname>Shannon E Thomas</attributionname><attributionurl>http://www.toicon.com/icons/stone_shop</attributionurl></work></metadata></svg>
