<?xml version="1.0" encoding="UTF-8"?>
<!-- Generator: Adobe Illustrator 19.2.0, SVG Export Plug-In . SVG Version: 6.00 Build 0)  -->
<!DOCTYPE svg PUBLIC "-//W3C//DTD SVG 1.1//EN" "http://www.w3.org/Graphics/SVG/1.1/DTD/svg11.dtd">
<svg xmlns="http://www.w3.org/2000/svg" xmlns:xlink="http://www.w3.org/1999/xlink" xmlns:dc="http://purl.org/dc/elements/1.1/" xmlns:cc="http://creativecommons.org/ns#" xmlns:rdf="http://www.w3.org/1999/02/22-rdf-syntax-ns#" version="1.1" id="DESIGNS" x="0px" y="0px" width="32px" height="32px" viewBox="0 0 32 32" style="enable-background:new 0 0 32 32;" xml:space="preserve">
<title property="dc:title">to star</title><desc property="dc:description">An icon for "star" from the Hatch series on to [icon]. Downloaded from http://www.toicon.com/icons/hatch_star by 202.98.41.0 on 2020-06-01. Licensed CC-BY, see http://toicon.com/license/ for details.</desc>
<g>
	<path class="hatch_twee" d="M27.051,12.26l1.232,0.182L15.5,25.217l-3.016,1.61L27.051,12.26z M7.601,23.709l-0.287,1.702   l13.997-13.997l-1.232-0.182L7.601,23.709z M6.788,28.522L6.539,30l0.399-0.213l17.859-17.859l-1.232-0.182L6.788,28.522z    M19.799,27.512l0.922,0.492l2.911-2.911l-0.204-1.21L19.799,27.512z M22.407,28.904l0.922,0.492l0.881-0.881l-0.204-1.21   L22.407,28.904z M17.191,26.12l0.922,0.492l4.941-4.941l-0.204-1.21L17.191,26.12z M9.246,11.479l-1.659,0.245l-3.765,3.765   l0.711,0.703L9.246,11.479z M17.863,6.861L17.401,5.91L5.833,17.478l0.711,0.703L17.863,6.861z M7.843,19.467L8.25,19.87   l-0.123,0.728L19.172,9.553l-0.463-0.951L7.843,19.467z M12.449,8.275l4.105-4.105l-0.463-0.952l-2.305,2.305L12.449,8.275z    M4.554,12.171l-1.659,0.245l-1.083,1.083l0.711,0.703L4.554,12.171z" style="fill: red;"/>
	<path class="hatch_een" d="M19.981,11.217L30,12.695l-7.25,7.174L24.461,30L15.5,25.217L6.539,30L8.25,19.87L1,12.695l10.019-1.478   L15.5,2L19.981,11.217z M14.601,1.563l-4.25,8.742l-9.497,1.401c-0.375,0.055-0.686,0.318-0.804,0.678   c-0.118,0.36-0.022,0.756,0.247,1.022l6.881,6.809l-1.625,9.618c-0.064,0.376,0.092,0.755,0.402,0.978   C6.128,30.937,6.333,31,6.539,31c0.161,0,0.323-0.039,0.471-0.118l8.491-4.532l8.491,4.532C24.138,30.961,24.3,31,24.461,31   c0.206,0,0.411-0.063,0.584-0.188c0.309-0.223,0.465-0.602,0.402-0.978l-1.625-9.618l6.881-6.809   c0.269-0.267,0.365-0.662,0.247-1.022c-0.118-0.36-0.429-0.622-0.804-0.678l-9.497-1.401l-4.25-8.742C16.232,1.219,15.958,1,15.5,1   S14.768,1.219,14.601,1.563z" style="fill: #265AA5;"/>
</g>
<metadata><work rdf:about=""><format>image/svg+xml</format><type rdf:resource="http://purl.org/dc/dcmitype/StillImage"/><license rdf:resource="http://creativecommons.org/licenses/by/4.0/"/><attributionname>Carol Liao</attributionname><attributionurl>http://www.toicon.com/icons/hatch_star</attributionurl></work></metadata></svg>
