<?xml version="1.0" encoding="UTF-8"?>
<!-- Generator: Adobe Illustrator 21.1.0, SVG Export Plug-In . SVG Version: 6.00 Build 0)  -->
<svg xmlns="http://www.w3.org/2000/svg" xmlns:xlink="http://www.w3.org/1999/xlink" xmlns:dc="http://purl.org/dc/elements/1.1/" xmlns:cc="http://creativecommons.org/ns#" xmlns:rdf="http://www.w3.org/1999/02/22-rdf-syntax-ns#" version="1.1" id="designs" x="0px" y="0px" width="32px" height="32px" viewBox="0 0 32 32" style="enable-background:new 0 0 32 32;" xml:space="preserve">
<title property="dc:title">to order</title><desc property="dc:description">An icon for "order" from the Sketchy series on to [icon]. Downloaded from http://www.toicon.com/icons/sketchy_order by 119.86.122.64 on 2020-05-16. Licensed CC-BY, see http://toicon.com/license/ for details.</desc>
<path class="sketchy_een" d="M8.63,10.478c0.002,0.002,0.004,0.005,0.005,0.007c0.001,0.001,0.001,0.002,0.002,0.003  C8.635,10.484,8.633,10.481,8.63,10.478z M12.146,13.831c0.034,0.196,0.037,0.297,0.011,0.491c-0.045,0.321-0.37,0.581-0.671,0.656  c-0.295,0.073-0.592,0.071-0.891,0.052c-0.189-0.011-0.375-0.037-0.557-0.086c-0.062-0.016-0.124-0.029-0.185-0.043  c-0.002,0.384-0.004,0.768-0.007,1.152c-0.009,1.405,0.065,2.808,0.185,4.205c0.056,0.674,0.067,1.351,0.078,2.027  c0.006,0.349,0.004,0.699,0.004,1.048c0,0.148-0.002,0.295-0.002,0.445c-0.001,0.098,0.002,0.203,0,0.307  c0.143,0.102,0.254,0.251,0.305,0.436c0.058,0.211,0.028,0.439-0.082,0.628c-0.095,0.163-0.29,0.347-0.486,0.374  c-0.052,0.007-0.103,0.015-0.155,0.022c0.032-0.004,0.064-0.008,0.095-0.012c-0.086,0.012-0.173,0.023-0.259,0.034  c-0.157,0.022-0.313,0.044-0.471,0.048c-0.133,0.004-0.265,0.002-0.396,0.013c-0.269,0.019-0.538,0.017-0.805,0.05  c-0.699,0.086-1.408,0.09-2.111,0.103c-0.222,0.004-0.425-0.092-0.572-0.242c-0.307-0.081-0.553-0.353-0.545-0.683  c0.009-0.361,0.009-0.721,0.026-1.082c0.015-0.331,0.006-0.665-0.008-0.996c-0.015-0.321-0.05-0.641-0.062-0.964  c-0.013-0.34-0.021-0.68-0.037-1.02c-0.035-0.717-0.063-1.436-0.063-2.154c-0.002-0.706,0.002-1.41-0.009-2.116  c-0.01-0.618,0.006-1.234,0.028-1.852c-0.045,0.003-0.09,0.003-0.135,0.007c-0.256,0.046-0.506,0.107-0.768,0.09  c-0.177-0.013-0.357-0.015-0.534-0.032c-0.353-0.036-0.77-0.123-0.949-0.474c-0.11-0.213-0.149-0.428-0.093-0.665  c0.028-0.12,0.084-0.232,0.138-0.342c0.118-0.237,0.247-0.473,0.374-0.704c0.161-0.297,0.349-0.573,0.547-0.844  c0.204-0.276,0.396-0.56,0.592-0.842c0.446-0.643,0.897-1.283,1.377-1.902c0.226-0.29,0.461-0.57,0.693-0.854  C6.017,7.78,6.288,7.453,6.583,7.145C6.722,7,6.912,6.929,7.104,6.929c0.169,0,0.332,0.065,0.467,0.172  c0.052-0.011,0.104-0.021,0.156-0.021c0.272,0,0.534,0.147,0.693,0.391c0.443,0.682,0.893,1.36,1.358,2.029  c0.381,0.545,0.794,1.072,1.125,1.651c0.164,0.288,0.304,0.588,0.454,0.882c0.142,0.275,0.293,0.547,0.43,0.826  c0.127,0.262,0.245,0.531,0.323,0.811C12.122,13.723,12.137,13.777,12.146,13.831z M10.482,13.483  c-0.178-0.349-0.377-0.689-0.559-1.034c-0.14-0.26-0.29-0.512-0.445-0.764c-0.162-0.263-0.322-0.524-0.511-0.768  c-0.036-0.046-0.071-0.093-0.108-0.14c0.026,0.033,0.052,0.067,0.078,0.1c0.014,0.018,0.028,0.036,0.042,0.055  c0,0,0.001,0.001,0.001,0.001c-0.011-0.015-0.023-0.03-0.034-0.045c0.011,0.014,0.021,0.027,0.032,0.041  c-0.013-0.017-0.026-0.034-0.039-0.051c-0.009-0.012-0.019-0.025-0.028-0.037c0.007,0.009,0.014,0.018,0.02,0.027  c-0.053-0.068-0.106-0.137-0.159-0.206c0.011,0.014,0.021,0.027,0.032,0.041c-0.013-0.017-0.026-0.033-0.039-0.05  c-0.026-0.034-0.053-0.069-0.079-0.103c0.019,0.025,0.037,0.049,0.056,0.074c-0.036-0.046-0.071-0.092-0.107-0.138  C8.163,9.867,7.717,9.231,7.28,8.587C6.828,9.075,6.393,9.58,5.982,10.102c-0.505,0.672-0.971,1.37-1.437,2.068  c-0.228,0.342-0.488,0.658-0.693,1.012c-0.023,0.04-0.046,0.081-0.069,0.121c0.238-0.045,0.475-0.091,0.716-0.124  c-0.046,0.006-0.091,0.011-0.137,0.018c0.157-0.021,0.312-0.047,0.469-0.064c0.189-0.022,0.409,0.093,0.538,0.222  c0.038,0.038,0.059,0.087,0.088,0.132c0.324,0.086,0.601,0.374,0.581,0.724c-0.049,0.816-0.116,1.629-0.093,2.445  c0.017,0.704,0.019,1.408,0.024,2.113c0.006,0.719,0.03,1.442,0.06,2.159c0.015,0.329,0.017,0.658,0.028,0.984  c0.011,0.331,0.036,0.659,0.05,0.99c0.019,0.42,0.002,0.84-0.015,1.26c0.08,0.001,0.16,0.001,0.24,0.002  c0.499,0.006,1.001,0.011,1.496-0.047c0.285-0.034,0.571-0.054,0.857-0.076c0.004-0.023,0.002-0.047,0.009-0.069  c0.004-0.311-0.003-0.623-0.005-0.933c-0.002-0.704-0.007-1.405-0.049-2.107c-0.039-0.637-0.077-1.276-0.105-1.913  c-0.03-0.736-0.049-1.472-0.064-2.208c-0.017-0.792-0.049-1.584-0.052-2.376c0-0.01,0.005-0.019,0.006-0.029  c-0.175-0.242-0.201-0.582-0.046-0.848c0.217-0.372,0.686-0.48,1.055-0.278c0.003,0.002,0.005,0.003,0.008,0.005  c0.056,0.015,0.111,0.026,0.167,0.036c0.21,0.021,0.422,0.034,0.626,0.092C10.32,13.436,10.4,13.461,10.482,13.483z M8.946,10.888  c-0.002-0.003-0.005-0.007-0.007-0.01c-0.003-0.003-0.005-0.007-0.008-0.01c0.002,0.003,0.005,0.006,0.007,0.009  C8.941,10.88,8.943,10.884,8.946,10.888z M8.766,10.652c-0.008-0.01-0.015-0.02-0.023-0.029c0.01,0.013,0.02,0.026,0.03,0.038  C8.77,10.658,8.768,10.655,8.766,10.652z M14.214,9.494c-0.061-0.407-0.103-0.785-0.011-1.197c0.09-0.4,0.176-0.798,0.301-1.188  c0.068-0.21,0.21-0.379,0.389-0.48c0.128-0.237,0.373-0.406,0.658-0.407c0.119-0.001,0.239-0.001,0.358-0.001  c0.807,0,1.613,0.015,2.42,0.018c0.192,0.002,0.385-0.002,0.577-0.006c0.209-0.004,0.42-0.009,0.631-0.007  c0.424,0.002,0.848,0.032,1.272,0.032c0.204,0,0.391,0.085,0.528,0.22c0.077-0.021,0.156-0.035,0.238-0.035  c0.064,0,0.129,0.007,0.194,0.02c0.321,0.065,0.6,0.234,0.771,0.521c0.138,0.234,0.138,0.495,0.107,0.753  c-0.032,0.271-0.03,0.551-0.021,0.824c0.009,0.247,0.006,0.493,0.006,0.74c0,0.213-0.011,0.417-0.039,0.628  c-0.019,0.123-0.06,0.254-0.125,0.362c-0.077,0.131-0.213,0.303-0.355,0.366c-0.192,0.086-0.362,0.142-0.575,0.14  c-0.056,0-0.114-0.002-0.17-0.002c-0.125,0-0.25,0-0.375-0.004c-0.28-0.011-0.562-0.015-0.842-0.024  c-0.23-0.007-0.458-0.006-0.686-0.004c-0.131,0.002-0.262,0.004-0.392,0.002c-0.374-0.002-0.747-0.004-1.123,0  c-0.375,0.004-0.753,0.002-1.13,0.008c-0.355,0.007-0.706,0.039-1.059,0.056c-0.342,0.015-0.712-0.049-0.992-0.258  c-0.243-0.179-0.437-0.411-0.501-0.715C14.241,9.736,14.228,9.615,14.214,9.494z M18.327,7.688  c-0.785-0.006-1.568,0.015-2.353,0.031c-0.085,0.266-0.166,0.531-0.218,0.806c-0.008,0.123-0.004,0.248,0.006,0.371  c0.017,0.083,0.038,0.165,0.054,0.247c0.005,0.024,0.009,0.049,0.014,0.073c0.105,0.003,0.21,0.002,0.315,0  c0.077,0,0.151-0.002,0.228-0.002c0.269,0,0.536,0,0.805-0.002c0.252,0,0.504,0.002,0.756,0.004  c0.299,0.004,0.598,0.008,0.897,0.002c0.538-0.006,1.076-0.006,1.614-0.011c0.204-0.002,0.405,0.006,0.609,0.011  c0.012,0,0.025,0.001,0.037,0.001c0.002-0.22-0.008-0.44-0.023-0.659c-0.015-0.196-0.028-0.392-0.039-0.588  c-0.003-0.051-0.003-0.102-0.002-0.153C21,7.794,20.979,7.764,20.955,7.736c-0.049,0.009-0.095,0.029-0.147,0.025  c-0.439-0.036-0.882-0.039-1.323-0.05C19.099,7.701,18.714,7.692,18.327,7.688z M14.268,16.473c-0.03-0.077-0.058-0.149-0.075-0.228  c-0.062-0.265-0.084-0.553-0.077-0.826c0.007-0.261,0.032-0.523,0.039-0.786c0.007-0.334-0.011-0.667-0.011-1.001  c-0.001-0.183,0.073-0.345,0.178-0.482c0.098-0.313,0.382-0.541,0.724-0.547c0.381-0.008,0.762-0.013,1.143-0.013  c0.798-0.004,1.595-0.032,2.393-0.047c0.738-0.013,1.476-0.015,2.212-0.058c0.325-0.019,0.652-0.009,0.977-0.004  c0.319,0.006,0.637-0.004,0.955-0.009c0.22-0.002,0.441-0.009,0.659-0.011c0.022,0,0.045-0.001,0.067-0.001  c0.095,0,0.19,0.003,0.286,0.004c0.163,0.004,0.325,0.009,0.488-0.002c0.214-0.013,0.407,0.089,0.546,0.243  c0.078-0.028,0.158-0.052,0.245-0.058c0.046-0.003,0.093-0.005,0.139-0.005c0.104,0,0.208,0.01,0.307,0.042  c0.086,0.028,0.172,0.062,0.247,0.116c0.176,0.125,0.189,0.144,0.319,0.314c0.142,0.183,0.166,0.467,0.17,0.691  c0.003,0.289-0.044,0.57-0.087,0.855c-0.038,0.38-0.012,0.763-0.014,1.142c0,0.291-0.078,0.603-0.291,0.814  c-0.219,0.215-0.488,0.299-0.788,0.314c-0.172,0.009-0.344,0.008-0.514,0.006c-0.107,0-0.211,0-0.316,0  c-0.667,0.007-1.334,0.002-1.999,0.019c-0.643,0.017-1.283,0.037-1.926,0.062c-0.799,0.028-1.597,0.054-2.397,0.092  c-0.417,0.019-0.835,0.026-1.251,0.041c-0.228,0.009-0.454,0.022-0.682,0.035c-0.209,0.011-0.432,0.041-0.639,0.015  c-0.196-0.026-0.405-0.037-0.573-0.151c-0.078-0.052-0.159-0.106-0.222-0.176C14.363,16.72,14.345,16.662,14.268,16.473z   M15.765,14.123c-0.011,0.493-0.024,0.989,0.021,1.48c1.588,0.019,3.174-0.025,4.762-0.057c0.77-0.017,1.539-0.036,2.309-0.05  c0.379-0.007,0.758-0.019,1.138-0.022c0.191-0.002,0.384-0.004,0.576-0.012c-0.004-0.053-0.007-0.106-0.01-0.158  c-0.009-0.202-0.024-0.409-0.013-0.611c0.012-0.22,0.041-0.445,0.05-0.668c-0.04-0.026-0.078-0.056-0.114-0.092  c-0.003-0.003-0.004-0.007-0.007-0.01c-0.08,0.029-0.163,0.052-0.251,0.052c-0.233,0-0.467,0.03-0.701,0.034  c-0.501,0.013-0.999-0.015-1.5-0.024c-0.672-0.013-1.345-0.024-2.017-0.022c-0.779,0.002-1.556,0.028-2.333,0.082  C17.04,14.086,16.403,14.106,15.765,14.123z M29.821,22.992c-0.058,0.402-0.394,0.702-0.805,0.715  c-0.37,0.011-0.734,0.067-1.104,0.052c-0.26-0.011-0.519-0.011-0.779-0.019c-0.211-0.006-0.42-0.028-0.631-0.043  c-0.562-0.041-1.128-0.039-1.69-0.041c-0.588-0.002-1.177-0.009-1.765-0.013c-0.826-0.004-1.653,0.011-2.479,0.021  c-0.822,0.007-1.644,0.015-2.466,0.039c-0.39,0.011-0.777,0.037-1.166,0.069c-0.375,0.03-0.753,0.075-1.128,0.082  c-0.431,0.008-0.895-0.019-1.222-0.334c-0.243-0.232-0.396-0.592-0.374-0.93c0.017-0.282,0.086-0.552,0.132-0.826  c0.016-0.171,0.023-0.341,0.028-0.513c0.009-0.265,0.043-0.525,0.084-0.785c0.019-0.122,0.093-0.239,0.183-0.337  c0.016-0.05,0.023-0.102,0.05-0.148c0.09-0.153,0.269-0.319,0.454-0.347c1.464-0.23,2.955-0.305,4.438-0.336  c0.404-0.007,0.807-0.009,1.21-0.026c0.379-0.015,0.757-0.047,1.136-0.052c0.187-0.002,0.375,0,0.564-0.011  c0.166-0.009,0.331-0.03,0.495-0.045c0.323-0.026,0.654-0.058,0.977-0.062c0.771-0.011,1.541-0.008,2.313-0.03  c0.394-0.011,0.784-0.026,1.179-0.028c0.282-0.002,0.565-0.018,0.845-0.044c0.07-0.013,0.139-0.03,0.21-0.045  c0.125-0.029,0.248-0.048,0.37-0.048c0.156,0,0.308,0.032,0.456,0.119c0.42,0.247,0.497,0.723,0.53,1.162  c0.017,0.22-0.009,0.441-0.006,0.661c0.003,0.197,0.008,0.394,0.027,0.588c0.051,0.347,0.108,0.698,0.112,1.048  C30.002,22.675,29.926,22.845,29.821,22.992z M28.179,22.151c-0.007-0.107-0.011-0.215-0.016-0.323  c-0.011-0.215-0.015-0.424-0.011-0.637c0.005-0.213,0.007-0.422,0.034-0.633c-0.279,0.026-0.556,0.015-0.835,0.026  c-0.325,0.013-0.65,0.015-0.977,0.015c-0.34,0.002-0.678,0.021-1.018,0.026c-0.372,0.007-0.742,0.007-1.113,0.015  c-0.325,0.006-0.646-0.002-0.969,0.034c-0.727,0.08-1.463,0.082-2.193,0.08c-0.799,0-1.597,0.041-2.397,0.056  c-0.39,0.007-0.779,0.009-1.167,0.037c-0.349,0.024-0.694,0.057-1.039,0.1c-0.123,0.018-0.245,0.039-0.367,0.058  c-0.007,0.042-0.014,0.083-0.021,0.125c-0.018,0.198-0.035,0.397-0.059,0.595c-0.018,0.151-0.043,0.301-0.067,0.452  c0.211,0.004,0.422-0.008,0.633-0.016c0.34-0.015,0.68-0.035,1.02-0.043c0.712-0.019,1.423-0.009,2.135-0.002  c1.64,0.017,3.282,0.039,4.922,0.045c0.76,0.002,1.522,0.009,2.283,0.017C27.364,22.181,27.772,22.174,28.179,22.151z" style="fill: #111918;"/>
<metadata><work rdf:about=""><format>image/svg+xml</format><type rdf:resource="http://purl.org/dc/dcmitype/StillImage"/><license rdf:resource="http://creativecommons.org/licenses/by/4.0/"/><attributionname>Shannon E Thomas</attributionname><attributionurl>http://www.toicon.com/icons/sketchy_order</attributionurl></work></metadata></svg>
