<?xml version="1.0" encoding="UTF-8"?>
<!-- Generator: Adobe Illustrator 19.1.0, SVG Export Plug-In . SVG Version: 6.00 Build 0)  -->
<svg xmlns="http://www.w3.org/2000/svg" xmlns:xlink="http://www.w3.org/1999/xlink" xmlns:dc="http://purl.org/dc/elements/1.1/" xmlns:cc="http://creativecommons.org/ns#" xmlns:rdf="http://www.w3.org/1999/02/22-rdf-syntax-ns#" version="1.1" id="DESIGNS" x="0px" y="0px" width="32px" height="32px" viewBox="0 0 32 32" style="enable-background:new 0 0 32 32;" xml:space="preserve">
<title property="dc:title">to use</title><desc property="dc:description">An icon for "use" from the Blueprint series on to [icon]. Downloaded from http://www.toicon.com/icons/blueprint_use by 119.86.122.64 on 2020-05-16. Licensed CC-BY, see http://toicon.com/license/ for details.</desc>
<path class="blueprint_een" d="M30.97,30.758l-1.364-5.456c-0.483-1.932-2.066-3.393-4.03-3.72l-3.741-0.623  C21.353,20.879,21,20.461,21,19.973v-1.122c2.548-2.241,4-5.64,4-9.406C25,3.972,21.215,0,16,0S7,3.972,7,9.444  c0,3.767,1.452,7.165,4,9.406v1.122c0,0.489-0.354,0.906-0.836,0.986l-3.741,0.623c-1.964,0.327-3.547,1.788-4.03,3.72L1.03,30.758  C0.872,31.389,1.349,32,2,32h28C30.651,32,31.128,31.389,30.97,30.758z M9,9.444C9,5.061,11.878,2,16,2s7,3.061,7,7.444  C23,15.278,18.854,19,16,19C13.141,19,9,15.281,9,9.444z M3.281,30l1.053-4.214c0.29-1.158,1.239-2.034,2.417-2.231l3.743-0.623  C11.946,22.688,13,21.444,13,19.973v-0.904C14.017,19.672,15.061,20,16,20s1.983-0.328,3-0.931v0.904  c0,1.472,1.054,2.716,2.507,2.959l3.741,0.623c1.179,0.197,2.128,1.073,2.418,2.231L28.719,30H3.281z" style="fill: #111918;"/>
<metadata><work rdf:about=""><format>image/svg+xml</format><type rdf:resource="http://purl.org/dc/dcmitype/StillImage"/><license rdf:resource="http://creativecommons.org/licenses/by/4.0/"/><attributionname>Shannon E Thomas</attributionname><attributionurl>http://www.toicon.com/icons/blueprint_use</attributionurl></work></metadata></svg>
